<svg xmlns="http://www.w3.org/2000/svg" viewBox="0 0 24 24" fill="none" stroke="currentColor" stroke-width="2" stroke-linecap="round" stroke-linejoin="round" class="lucide lucide-sparkles">
  <path d="m12 3-1.912 5.813a2 2 0 0 1-1.275 1.275L3 12l5.813 1.912a2 2 0 0 1 1.275 1.275L12 21l1.912-5.813a2 2 0 0 1 1.275-1.275L21 12l-5.813-1.912a2 2 0 0 1-1.275-1.275L12 3Z" fill="url(#logoGrad)" stroke="#4f46e5" stroke-width="1.5"/>
  <path d="m5 3 1 2.5L8.5 6 6 7 5 9.5 4 7 1.5 6 4 5.5Z" fill="#818cf8" opacity="0.8"/>
  <path d="m19 17 1 2.5 2.5.5-2.5 1-1 2.5-1-2.5-2.5-1 2.5-1Z" fill="#6366f1" opacity="0.8"/>
  <defs>
    <linearGradient id="logoGrad" x1="0%" y1="0%" x2="100%" y2="100%">
      <stop offset="0%" stop-color="#818cf8" />
      <stop offset="100%" stop-color="#4f46e5" />
    </linearGradient>
  </defs>
</svg>
