<svg xmlns="http://www.w3.org/2000/svg" viewBox="0 0 100 100">
  <defs>
    <linearGradient id="lindaGrad" x1="0%" y1="0%" x2="100%" y2="100%">
      <stop offset="0%" stop-color="#ec4899" />
      <stop offset="100%" stop-color="#8b5cf6" />
    </linearGradient>
  </defs>
  <rect width="100" height="100" rx="20" fill="url(#lindaGrad)" />
  <!-- Sparkles -->
  <path d="M 30,25 L 32,30 L 37,31 L 32,32 L 30,37 L 28,32 L 23,31 L 28,30 Z" fill="#fff" opacity="0.9" />
  <path d="M 75,65 L 76,68 L 79,69 L 76,70 L 75,73 L 74,70 L 71,69 L 74,68 Z" fill="#fff" opacity="0.8" />
  <!-- Minimalist Face Outline -->
  <circle cx="50" cy="45" r="22" fill="#fed7aa" />
  <!-- Caffeinated Eyes -->
  <circle cx="43" cy="43" r="3" fill="#1e1b4b" />
  <circle cx="57" cy="43" r="3" fill="#1e1b4b" />
  <!-- Coffee Cup -->
  <rect x="42" y="62" width="16" height="18" rx="3" fill="#ffffff" />
  <path d="M 58,66 H 61 A 3,3 0 0 1 64,69 V 71 A 3,3 0 0 1 61,74 H 58" stroke="#ffffff" stroke-width="2.5" fill="none" />
  <rect x="42" y="68" width="16" height="5" fill="#f43f5e" />
  <!-- Smile -->
  <path d="M 46,51 Q 50,55 54,51" stroke="#1e1b4b" stroke-width="2" stroke-linecap="round" fill="none" />
</svg>
